<?xml version="1.0" encoding="utf-8"?>
<!-- Generator: Adobe Illustrator 29.2.1, SVG Export Plug-In . SVG Version: 9.03 Build 55982)  -->
<svg version="1.1" baseProfile="tiny" id="Layer_1" xmlns:xlink="http://www.w3.org/1999/xlink"
	 xmlns="http://www.w3.org/2000/svg" xmlns:xlink="http://www.w3.org/1999/xlink" x="0px" y="0px" viewBox="0 0 1232.5 447.5"
	 overflow="visible" xml:space="preserve">
<g>
	<path fill="#E8E8E8" d="M97.3,75.7l-43.7,44.8h38.2l10.1-10.3h0.5l5.5,20.1h17.8l-13.2-54.6H97.3z M84.6,107.9L98,94.1
		c0.2,0,0.3-0.1,0.3-0.1c0.1,0,0.2,0,0.3,0.1c0.2,0.1,0.3,0.3,0.3,0.6l3,13.2l0,0l0,0L84.6,107.9L84.6,107.9z M184.7,90.1
		c-0.8,2.1-1.8,4-3.2,5.7c-1.3,1.7-2.9,3.2-4.6,4.5c-1.7,1.3-3.6,2.3-5.7,3.1c-2.1,0.8-4.2,1.3-6.3,1.6v0.3l10.5,15.2h-23.6
		l-12.1-17.2l4.1-11.2h22.9c0.5,0,0.9-0.2,1.2-0.7c0.4-0.5,0.6-0.9,0.7-1.2c0.2-0.4,0.1-0.9-0.1-1.2c-0.3-0.4-0.6-0.5-1.1-0.5h-26.1
		l-5.5,15h-15.8l10-27.7h48.2l0,0c1.8,0,3.2,0.5,4.3,1.4c1.1,1,1.9,2.1,2.4,3.6c0.5,1.4,0.7,3,0.6,4.7
		C185.6,87,185.2,88.6,184.7,90.1z M240.3,108.1l-4.5,12.4h-44.2c-1.9,0-3.3-0.4-4.5-1.3c-1.2-0.9-2-2-2.6-3.4
		c-0.6-1.4-0.8-2.9-0.8-4.6c0-1.7,0.3-3.3,0.9-5l5.9-16.1c0.6-1.6,1.5-3.3,2.7-5c1.2-1.7,2.6-3.3,4.2-4.6c1.6-1.4,3.3-2.5,5.1-3.4
		c1.8-0.9,3.6-1.3,5.5-1.3H252L245.3,94l0,0l0,0l0,0l0,0h-16.5l2.2-6h-22c-0.6,0-1.1,0.2-1.3,0.5c-0.2,0.3-0.4,0.7-0.5,1.1l-6,16.4
		c-0.2,0.7-0.3,1.2-0.4,1.6c-0.1,0.3,0.2,0.5,0.8,0.5H240.3z M253,120.5h25l10.1-10.3h0.5l2.8,10.3h18.1l-10.8-44.7h-15.3
		l-43.7,44.7H253L253,120.5z M284.2,94.1c0.2,0,0.3-0.1,0.3-0.1c0.1,0,0.2,0,0.3,0.1c0.2,0.1,0.3,0.3,0.3,0.6l3,13.2l0,0l0,0h-17.3
		L284.2,94.1z M403.1,90.2l-0.6,1.8h27.5l-4.5,12.4l0,0l0,0h-27.6l-1.3,3.8h39.8l-4.5,12.4h-56.4l11.1-30.4c0.6-1.6,1.5-3.3,2.7-5
		c1.2-1.7,2.6-3.3,4.2-4.6c1.6-1.4,3.3-2.5,5.1-3.4c1.8-0.9,3.6-1.3,5.5-1.3H448l-4.4,12.4h-38.5c-0.6,0-1,0.2-1.2,0.5
		C403.7,88.9,403.4,89.4,403.1,90.2z M381,90.1l-5.9,16.1c-0.6,1.6-1.5,3.3-2.6,5c-1.2,1.7-2.5,3.2-4.1,4.6
		c-1.6,1.4-3.2,2.5-5.1,3.4c-1.8,0.9-3.6,1.3-5.5,1.3h-17.7l0,0h-26.6L324,92l0,0l0,0h16.6l-5.9,16.2h22c0.6,0,1-0.1,1.2-0.4
		c0.2-0.3,0.3-0.6,0.5-1l6-16.5c0.2-0.7,0.3-1.2,0.4-1.6c0.1-0.3-0.2-0.5-0.8-0.5h-38.6l4.4-12.4h44.3c1.9,0,3.4,0.4,4.5,1.3
		c1.2,0.9,2,2,2.6,3.4c0.5,1.4,0.8,2.9,0.7,4.6C381.9,86.8,381.6,88.5,381,90.1z"/>
</g>
<g>
	<g>
		<path fill="#A51E22" d="M52.7,154.1h169l-9.4,29.9h-107L85,247.2c-0.7,1.8-0.4,3.7,0.7,5.6c1.1,1.9,2.6,3.4,4.4,4.6
			c0.4,0.3,1.4,0.5,3.1,0.7c1.7,0.2,3.7,0.4,6.1,0.5c2.4,0.1,5.1,0.2,8,0.2c2.9,0,5.9,0,8.9,0c7,0,14.9-0.1,23.6-0.4l7-21.5h-13.3
			l8-31.6h64.6l-23.6,85.5h-137c-4.3,0-8.6-0.9-12.8-2.7c-4.2-1.8-7.8-4.3-10.8-7.4c-1-1.2-1.9-2.6-2.6-4.4
			c-0.7-1.8-1.2-3.7-1.6-5.8c-0.3-2.1-0.5-4.1-0.4-6.1c0.1-2,0.4-3.7,0.9-5.3L52.7,154.1z"/>
		<path fill="#A51E22" d="M286.6,154.1c-4.6,16.9-8.7,32.2-12.3,45.9c-1.6,5.9-3.1,11.6-4.6,17.2c-1.5,5.6-2.9,10.7-4.1,15.2
			c-1.2,4.6-2.3,8.4-3.1,11.4c-0.8,3.1-1.3,4.8-1.5,5.4c-0.9,3-0.6,5.2,0.9,6.6c1.5,1.4,3.2,2.1,5,2.1h43.9l33-103.8h39
			c2.7,0,5,0.6,6.7,1.8c1.8,1.2,3.1,2.7,3.9,4.7c0.8,2,1.2,4.2,1,6.7c-0.2,2.5-0.9,5.2-2.2,7.9l-36.7,115.5H215.9
			c-3.4,0.1-6.3-0.3-8.7-1.2c-2.4-0.9-4.3-2.2-5.8-3.9c-1.4-1.7-2.3-3.6-2.7-5.9c-0.4-2.2-0.3-4.6,0.2-7.2
			c5.5-20.9,10.4-39.8,14.8-56.6c2-7.2,3.8-14.2,5.7-21.3c1.8-7,3.5-13.4,5.1-19s2.9-10.4,3.9-14.3c1-3.9,1.8-6.3,2.1-7.2H286.6z"/>
		<path fill="#A51E22" d="M374,290.7l34.5-121.4l25,46.8l-21.7,74.8L374,290.7z M509.9,222.2l24-68.1h50l-41.4,136.8h-58.8
			l-69.5-136.8H463c2.3-0.3,5.5,0.9,9.5,3.5c4,2.6,7.3,6.3,10,11.1L509.9,222.2z"/>
		<path fill="#A51E22" d="M694.5,154.1h172.2l-10.3,34.2H746l-19.1,63.6c-0.3,1,0,2.3,0.7,3.8c0.7,1.5,1.6,2.2,2.6,2.2
			c0.6,0,2.7,0,6.2,0c3.5,0,7.9,0,13.2-0.1c5.3-0.1,11.2-0.1,17.7-0.2c6.5-0.1,13.1-0.1,19.7-0.1c6.6,0,13.1,0,19.3-0.1
			c6.2-0.1,11.7-0.1,16.5-0.1c4.7,0,8.5,0,11.2,0.1c2.7,0.1,3.9,0.2,3.5,0.3l-9.8,33H683.6c-1.6,0-3.3-0.3-5.1-0.8
			c-1.8-0.5-3.6-1.2-5.4-2.1c-1.8-0.9-3.4-2-4.8-3.1c-1.4-1.2-2.6-2.4-3.5-3.7c-1.8-2.9-3.4-6.1-4.9-9.6c-1.4-3.5-1.6-6.9-0.6-10.1
			L694.5,154.1z"/>
		<path fill="#A51E22" d="M1019.7,290.7l34.5-121.4l25,46.8l-21.7,74.8L1019.7,290.7z M1155.5,222.2l24-68.1h50l-41.4,136.8h-58.8
			l-69.5-136.8h48.8c2.3-0.3,5.5,0.9,9.5,3.5c4,2.6,7.3,6.3,10,11.1L1155.5,222.2z"/>
	</g>
	<g>
		<path fill="#A51E22" d="M880.5,182.5c1.6-3.1,7.9-7.7,6.3-11.2l-32-35.4l46.2,19.1c10.4,2.2,16.9-3,25.8-7.5v-22.7
			c1.8,0.3,1.8,2,2.3,3.3c1.2,2.6,5.9,16.9,6.8,17.5l14.3-0.6c-1,3.3-0.5,7.8-1.8,10.9c-1.4,3.4-4.7,3.2-6.3,4.8
			c-3.2,3.3-3.3,23.3-5.1,28.8c-2.4,0.6-1.7-0.6-2.3-1.3c-2.2-2.5-3.6-5.7-6.3-7.8l0.1,10.1l-1.1,2.1c-6.7-3-13.8-5.5-21.3-5.2
			c-5.7,0.3-6.4,4.8-9.6,8.7c0.1,1.1,16.9,9.7,19.6,11.8c1.1,0.9,2.1,1,1.7,2.9l-17.4,6.5c-0.9,12.8-11,20.7-18.2,30.4
			c-0.4,2.1,0.8,1.7,2.3,1.3c10.1-2.8,22.6-11.3,33.2-14.5c1.4-0.4,2.7-0.6,4.1-0.5l-20.3,29.8l0.5,1.5l21.8-9.1
			c0.3,3.6,4.4,7.8,5,10.9c0.3,1.7-3,20.8-3.8,21.9c-2.6,1.6-6.2-0.5-8.8,1.5c-2.2,1.7-4.3,12.1-7.5,14.2v-17.2
			c-4.6-0.2-8.8-4.3-13.1-2.5l-72.1,52l35.1-55.5l16.6-15.9l-9.1-19l-16.2-5.1l13.8-4.5c0.1-15.5,3.4-29.6,9.4-43.8
			c-0.4-1.5-16.5-14.9-18.6-15.9L880.5,182.5z"/>
		<path fill="#A51E22" d="M1007.5,173.8c7.1,12.2,8.6,24.8,7.9,38.8c7.6,2.2,15.5,3,23.2,4.7c1.1,0.2,3.3,0,3,1.5l-27.9,4.1
			c-0.3,4.6-6.1,13.4-6.4,16.9c-0.1,1.5,2.4,3,1.9,3.3c-1.7-0.1-3.2-0.2-4.6,1c-2.5,2.2-7.7,13.9-11.5,16.9l9,18.4l-18.8-8.7
			L967,281.5c-2.1,15.3,3.2,30.4,4.6,45.5l-25.4-21.7l-5.1-15.6l-10.1,0.9c2.9-10.8,0.8-25.3,9.6-33.3l12.7,15.1v-28.3l10.6,4.1
			c3.2-0.3,3.3-4.4,6.4-5.8c3.8-1.8,9.3-1.1,13.4-1.3c0.5-1.9-0.7-1.9-1.7-2.8c-4.9-4.4-12.2-10.3-16.1-15.3c-0.8-1-2-1.3-1.5-3
			l30.4-4.1c0.2-2.5,0.2-1.7-1.5-2c-9-1.3-18-2.5-26.9-4.1c-0.5-1.9,0.7-1.9,1.7-2.8c3.1-2.8,7.9-6.2,11.5-8.3
			c1.1-1.7-9.8-3.4-9.1-6.5l10.1-21.8l-24.3,18.2c-1.1-14.9-5-28.1-0.1-42.9l14.7,1.3l7.2-10.9l-2.1,12.2l17.2,8.9l66.7-39.2
			L1007.5,173.8z"/>
		<path fill="#A51E22" d="M949.2,250.2l-6.7-8.1c-2.9-0.9-4.4,4.8-7,6.1l-4.2-7l-12.6,4l11.2-18.2c-5.5,2.3-10.8,5.3-16.3,7.6
			c-1.9,0.8-5.2,2.7-7.1,2c1.8-4.2,7.8-8.9,9.6-12.7c0.9-2,0.6-5.5,1.8-6.8c1-1,7.9-2.9,9.9-3.3c0.6-2.4-0.4-1.6-1.3-2.2
			c-3.1-2.1-7.4-4.3-10.9-5.9c2-9.7,11.7-6.1,18.3-3l0-7.1l5.1,5l2.7-15.9l5.9-3.3l3.6,18.2l14.2-10.1l-6.1,13.6l5.1,3.1l-7.1,6.6
			l16.2,2c0.5,2.9-0.6,1.7-2.3,2.2c-4.6,1.2-10.2,1.6-14.9,1.9c-1.9,1.6,12,11.5,10.1,13.1c-5.4-2.5-9,3.5-10.8,3.9
			c-1.9,0.4-4.4-2.1-6.5-1.8V250.2z"/>
	</g>
	<polygon fill="#A51E22" points="835.4,103 463,103 457.4,119.5 829.8,119.5 	"/>
	<polygon fill="#A51E22" points="774.3,328 9.9,328 2.4,344.5 766.8,344.5 	"/>
	<polygon fill="#A51E22" points="1016.5,328 1009,344.5 1178.7,344.5 1186.2,328 	"/>
</g>
</svg>
