<?xml version="1.0" encoding="UTF-8"?>
<svg id="Ebene_1" xmlns="http://www.w3.org/2000/svg" xmlns:xlink="http://www.w3.org/1999/xlink" version="1.1" viewBox="0 0 21.8 20.8">
  <!-- Generator: Adobe Illustrator 29.2.1, SVG Export Plug-In . SVG Version: 2.1.0 Build 116)  -->
  <path d="M10.1,13.4h1.5v-3h2.3l-3-3-3,3h2.3v3ZM10.9,4.4c.8,0,1.6.2,2.3.5.7.3,1.4.7,1.9,1.3.5.5,1,1.2,1.3,1.9.3.7.5,1.5.5,2.3s-.2,1.6-.5,2.3c-.3.7-.7,1.4-1.3,1.9-.5.5-1.2,1-1.9,1.3-.7.3-1.5.5-2.3.5s-1.6-.2-2.3-.5c-.7-.3-1.4-.7-1.9-1.3-.5-.5-1-1.2-1.3-1.9-.3-.7-.5-1.5-.5-2.3s.2-1.6.5-2.3c.3-.7.7-1.4,1.3-1.9.5-.5,1.2-1,1.9-1.3.7-.3,1.5-.5,2.3-.5ZM10.9,17.9c1,0,2-.2,2.9-.6.9-.4,1.7-.9,2.4-1.6.7-.7,1.2-1.5,1.6-2.4.4-.9.6-1.9.6-2.9s-.2-2-.6-2.9c-.4-.9-.9-1.7-1.6-2.4-.7-.7-1.5-1.2-2.4-1.6-.9-.4-1.9-.6-2.9-.6s-2,.2-2.9.6c-.9.4-1.7.9-2.4,1.6-.7.7-1.2,1.5-1.6,2.4-.4.9-.6,1.9-.6,2.9s.2,2,.6,2.9c.4.9.9,1.7,1.6,2.4.7.7,1.5,1.2,2.4,1.6.9.4,1.9.6,2.9.6Z" fill="#af0900"/>
</svg>