<?xml version="1.0" encoding="utf-8"?>
<!-- Generator: Adobe Illustrator 29.2.1, SVG Export Plug-In . SVG Version: 9.03 Build 55982)  -->
<svg version="1.1" baseProfile="tiny" id="Ebene_1" xmlns:xlink="http://www.w3.org/1999/xlink"
	 xmlns="http://www.w3.org/2000/svg" xmlns:xlink="http://www.w3.org/1999/xlink" x="0px" y="0px" viewBox="0 0 21.8 20.8"
	 overflow="visible" xml:space="preserve">
<g>
	<path fill="#AF0900" d="M4.1,5C5,4.9,6.2,5.5,7.2,5.5c1.3,0.1,2-0.3,3.2-0.5c2.6-0.4,3.5,2.3,4,4.2c0.4,1.5,1.1,4.7,0.4,6
		c-0.5,0.9-1.5,0.4-2-0.1c-1.1-1-1.2-1.9-2.9-2.1C8.5,13,6.3,13,5,13.2c-1.2,0.2-1.3,0.6-2.1,1.4c-0.6,0.6-1.9,1.9-2.6,0.7
		c-0.8-1.3-0.1-4.6,0.3-6.1C1.2,7.5,1.9,5.2,4.1,5z M11.3,8.4c0.5-0.5-0.1-1.4-0.8-1C9.6,7.8,10.6,9.1,11.3,8.4z M3,8
		c-1.5,0.2-1.4,2.7,0.3,2.7C5.1,10.6,5,7.7,3,8z M9.2,8.7c-0.9,0.2-0.5,1.6,0.4,1.2C10.3,9.6,10,8.5,9.2,8.7z M12.1,8.7
		c-0.4,0.1-0.6,0.6-0.4,0.9c0.3,0.6,1.1,0.4,1.2-0.1C12.9,9,12.6,8.6,12.1,8.7z M10.7,10.1c-0.8,0.1-0.7,1.4,0.1,1.3
		C11.7,11.3,11.6,10,10.7,10.1z"/>
</g>
</svg>
