<?xml version="1.0" encoding="utf-8"?>
<!-- Generator: Adobe Illustrator 29.2.1, SVG Export Plug-In . SVG Version: 9.03 Build 55982)  -->
<svg version="1.1" baseProfile="tiny" id="Ebene_1" xmlns:xlink="http://www.w3.org/1999/xlink"
	 xmlns="http://www.w3.org/2000/svg" xmlns:xlink="http://www.w3.org/1999/xlink" x="0px" y="0px" viewBox="0 0 21.8 20.8"
	 overflow="visible" xml:space="preserve">
<path fill="#372D5A" d="M13.5,8.6c-0.2,0-0.5-0.1-0.6-0.3c-0.2-0.2-0.3-0.4-0.3-0.6c0-0.3,0.1-0.5,0.3-0.6c0.2-0.2,0.4-0.3,0.6-0.3
	c0.2,0,0.5,0.1,0.6,0.3c0.2,0.2,0.3,0.4,0.3,0.6c0,0.2-0.1,0.5-0.3,0.6C13.9,8.5,13.7,8.6,13.5,8.6z M11.7,10.4
	c-0.3,0-0.5-0.1-0.6-0.3c-0.2-0.2-0.3-0.4-0.3-0.6c0-0.2,0.1-0.5,0.3-0.6c0.2-0.2,0.4-0.3,0.6-0.3c0.2,0,0.5,0.1,0.6,0.3
	c0.2,0.2,0.3,0.4,0.3,0.6c0,0.2-0.1,0.5-0.3,0.6C12.1,10.3,11.9,10.4,11.7,10.4z M5.4,10.4c-0.5,0-0.9-0.2-1.3-0.5
	C3.8,9.5,3.6,9.1,3.6,8.6c0-0.5,0.2-0.9,0.5-1.3C4.5,7,4.9,6.8,5.4,6.8c0.5,0,0.9,0.2,1.3,0.5C7,7.7,7.2,8.1,7.2,8.6
	c0,0.5-0.2,0.9-0.5,1.3C6.3,10.2,5.9,10.4,5.4,10.4z M17.4,9.8c-0.2-1.1-0.4-2-0.8-2.8c-0.3-0.7-0.6-1.3-0.9-1.8
	c-0.3-0.4-0.7-0.7-1-0.9c-0.3-0.2-0.6-0.3-0.8-0.3c-0.7,0-1.4,0.2-1.9,0.6C11.6,5,10.5,5.2,9,5.2C7.4,5.2,6.4,5,5.9,4.6
	C5.3,4.3,4.7,4.1,4,4.1c-0.2,0-0.5,0.1-0.8,0.3c-0.3,0.2-0.6,0.5-1,0.9c-0.3,0.4-0.6,1-0.9,1.8S0.7,8.7,0.5,9.8
	c-0.1,0.6-0.2,1.3-0.3,2.1C0.1,12.6,0,13.3,0,14c0,0.7,0,1.2,0.1,1.7s0.3,0.8,0.6,0.9c0.7,0.3,1.3,0.2,1.7-0.4
	c0.4-0.5,1-1.1,1.8-1.7c0.8-0.6,1.5-1,2.1-1.2C6.9,13.1,7.8,13,9,13c1.2,0,2,0.1,2.6,0.3c0.6,0.2,1.3,0.6,2.1,1.2
	c0.8,0.6,1.4,1.2,1.8,1.7c0.4,0.5,1,0.6,1.7,0.4c0.3-0.1,0.5-0.4,0.6-0.9s0.1-1.1,0.1-1.7c0-0.7-0.1-1.4-0.2-2.1
	C17.7,11.1,17.6,10.4,17.4,9.8z"/>
</svg>
