<?xml version="1.0" encoding="UTF-8"?>
<svg id="Ebene_1" xmlns="http://www.w3.org/2000/svg" xmlns:xlink="http://www.w3.org/1999/xlink" version="1.1" viewBox="0 0 21.8 20.8">
  <!-- Generator: Adobe Illustrator 29.2.1, SVG Export Plug-In . SVG Version: 2.1.0 Build 116)  -->
  <defs>
    <style>
      .st0 {
        fill: #372d5a;
      }
    </style>
  </defs>
  <path class="st0" d="M9.7,8.9c0,.6-.2,1.1-.7,1.6s-1,.7-1.6.7-1.1-.2-1.6-.7c-.4-.4-.7-1-.7-1.6s.2-1.1.7-1.6,1-.7,1.6-.7,1.1.2,1.6.7.7,1,.7,1.6ZM12,14.3c-.5-.7-1.1-1.3-1.9-1.8-.8-.4-1.6-.7-2.6-.7s-1.8.2-2.6.7c-.8.4-1.4,1-1.9,1.8-.5-.5-.8-1.1-1.1-1.8s-.4-1.4-.4-2.1.2-1.6.5-2.3.7-1.4,1.3-1.9c.5-.5,1.2-1,1.9-1.3.7-.3,1.5-.5,2.3-.5s1.6.2,2.3.5,1.4.7,1.9,1.3c.5.5,1,1.2,1.3,1.9s.5,1.5.5,2.3-.1,1.5-.4,2.1c-.3.7-.6,1.3-1.1,1.8ZM7.5,2.9c-1,0-2,.2-2.9.6-.9.4-1.7.9-2.4,1.6s-1.2,1.5-1.6,2.4c-.4.9-.6,1.9-.6,2.9s.2,2,.6,2.9c.4.9.9,1.7,1.6,2.4.7.7,1.5,1.2,2.4,1.6.9.4,1.9.6,2.9.6s2-.2,2.9-.6c.9-.4,1.7-.9,2.4-1.6s1.2-1.5,1.6-2.4c.4-.9.6-1.9.6-2.9s-.2-2-.6-2.9c-.4-.9-.9-1.7-1.6-2.4-.7-.7-1.5-1.2-2.4-1.6-.9-.4-1.9-.6-2.9-.6Z"/>
</svg>