<?xml version="1.0" encoding="utf-8"?>
<!-- Generator: Adobe Illustrator 29.2.1, SVG Export Plug-In . SVG Version: 9.03 Build 55982)  -->
<svg version="1.1" baseProfile="tiny" id="Ebene_1" xmlns:xlink="http://www.w3.org/1999/xlink"
	 xmlns="http://www.w3.org/2000/svg" xmlns:xlink="http://www.w3.org/1999/xlink" x="0px" y="0px" viewBox="0 0 21.8 20.8"
	 overflow="visible" xml:space="preserve">
<path fill="#372D5A" d="M9.7,8.9c0,0.6-0.2,1.1-0.7,1.6s-1,0.7-1.6,0.7S6.3,11,5.8,10.5c-0.4-0.4-0.7-1-0.7-1.6s0.2-1.1,0.7-1.6
	s1-0.7,1.6-0.7S8.5,6.8,9,7.3S9.7,8.3,9.7,8.9z M12,14.3c-0.5-0.7-1.1-1.3-1.9-1.8c-0.8-0.4-1.6-0.7-2.6-0.7S5.7,12,4.9,12.5
	c-0.8,0.4-1.4,1-1.9,1.8c-0.5-0.5-0.8-1.1-1.1-1.8s-0.4-1.4-0.4-2.1S1.7,8.8,2,8.1s0.7-1.4,1.3-1.9c0.5-0.5,1.2-1,1.9-1.3
	c0.7-0.3,1.5-0.5,2.3-0.5s1.6,0.2,2.3,0.5s1.4,0.7,1.9,1.3c0.5,0.5,1,1.2,1.3,1.9s0.5,1.5,0.5,2.3s-0.1,1.5-0.4,2.1
	C12.8,13.2,12.5,13.8,12,14.3z M7.5,2.9c-1,0-2,0.2-2.9,0.6S2.9,4.4,2.2,5.1S1,6.6,0.6,7.5S0,9.4,0,10.4s0.2,2,0.6,2.9
	s0.9,1.7,1.6,2.4c0.7,0.7,1.5,1.2,2.4,1.6s1.9,0.6,2.9,0.6s2-0.2,2.9-0.6s1.7-0.9,2.4-1.6s1.2-1.5,1.6-2.4c0.4-0.9,0.6-1.9,0.6-2.9
	s-0.2-2-0.6-2.9c-0.4-0.9-0.9-1.7-1.6-2.4c-0.7-0.7-1.5-1.2-2.4-1.6S8.5,2.9,7.5,2.9z"/>
</svg>
