<?xml version="1.0" encoding="UTF-8"?>
<svg id="Ebene_1" xmlns="http://www.w3.org/2000/svg" xmlns:xlink="http://www.w3.org/1999/xlink" version="1.1" viewBox="0 0 21.8 20.8">
  <!-- Generator: Adobe Illustrator 29.2.1, SVG Export Plug-In . SVG Version: 2.1.0 Build 116)  -->
  <defs>
    <style>
      .st0 {
        fill: #9b9a9a;
      }
    </style>
  </defs>
  <path class="st0" d="M7.4,4.9l1,3c.1.8.9,1.3,1.7,1.3h3.2l-2.6,1.9h0s0,0,0,0c-.5.5-.7,1.2-.4,1.8l.9,2.9-2.5-1.8c-.3-.2-.6-.4-1-.4s-.7.1-1,.3l-2.5,1.8,1-2.9v-.2s0-.2,0-.2c0-.4,0-1.2-.7-1.6l-2.7-1.8h3.1c.7,0,1.3-.5,1.6-1.2l1-3.1M7.5,3.2c-.3,0-.5.1-.7.4l-1.3,4c0,.3-.3.5-.6.5H.7c-.7,0-.9.8-.4,1.2l3.6,2.5c.2.1.2.4.2.7l-1.3,4c-.1.5.2.8.6.8s.3,0,.4-.1l3.4-2.5c.2,0,.3-.2.4-.2s.3,0,.4.2l3.4,2.5c.1,0,.3.1.4.1.4,0,.8-.4.6-.8l-1.3-4c-.1-.2,0-.5.2-.7l3.4-2.5c.5-.4.2-1.2-.4-1.2h-4.2c-.3,0-.7-.2-.7-.5l-1.3-4c-.1-.3-.4-.4-.6-.4h0Z"/>
</svg>