<?xml version="1.0" encoding="utf-8"?>
<!-- Generator: Adobe Illustrator 29.2.1, SVG Export Plug-In . SVG Version: 9.03 Build 55982)  -->
<svg version="1.1" baseProfile="tiny" id="Ebene_1" xmlns:xlink="http://www.w3.org/1999/xlink"
	 xmlns="http://www.w3.org/2000/svg" xmlns:xlink="http://www.w3.org/1999/xlink" x="0px" y="0px" viewBox="0 0 21.8 20.8"
	 overflow="visible" xml:space="preserve">
<path fill="#FFA300" d="M7.5,4.2L8.7,8C8.9,8.6,9.4,9,10,9h4l-3.2,2.3c-0.5,0.4-0.7,1-0.5,1.6l1.2,3.8l-3.2-2.3
	C8.1,14.1,7.8,14,7.5,14s-0.6,0.1-0.8,0.3l-3.2,2.3l1.2-3.8c0.2-0.6,0-1.2-0.5-1.6L0.9,8.9h4c0.6,0,1.2-0.4,1.3-1L7.5,4.2 M7.5,3.2
	C7.2,3.2,7,3.4,6.9,3.7l-1.3,4C5.5,8,5.2,8.2,4.9,8.2H0.7C0,8.2-0.2,9,0.3,9.4l3.4,2.5C3.9,12.1,4,12.3,4,12.6l-1.3,4
	c-0.2,0.5,0.2,0.9,0.6,0.9c0.1,0,0.3,0,0.4-0.1l3.4-2.5c0.1-0.1,0.3-0.1,0.4-0.1s0.3,0,0.4,0.1l3.4,2.5c0.1,0.1,0.3,0.1,0.4,0.1
	c0.4,0,0.8-0.4,0.6-0.9l-1.3-4c-0.1-0.3,0-0.6,0.2-0.7l3.4-2.5C15.2,9,15,8.2,14.3,8.2h-4.2C9.8,8.2,9.5,8,9.4,7.7l-1.3-4
	C8,3.4,7.8,3.2,7.5,3.2L7.5,3.2z"/>
</svg>
