<?xml version="1.0" encoding="UTF-8"?>
<svg id="Ebene_1" xmlns="http://www.w3.org/2000/svg" xmlns:xlink="http://www.w3.org/1999/xlink" version="1.1" viewBox="0 0 21.8 20.8">
  <!-- Generator: Adobe Illustrator 29.2.1, SVG Export Plug-In . SVG Version: 2.1.0 Build 116)  -->
  <defs>
    <style>
      .st0 {
        fill: #9b9a9a;
      }
    </style>
  </defs>
  <path class="st0" d="M8.1,3.7l1.3,4c0,.3.4.5.7.5h4.2c.6,0,.9.8.4,1.2l-3.4,2.5c-.2.2-.3.5-.2.7l1.3,4c.2.6-.5,1.1-1,.7l-3.4-2.5c-.2-.2-.5-.2-.8,0l-3.4,2.5c-.5.4-1.2-.1-1-.7l1.3-4c0-.3,0-.6-.2-.7L.3,9.4c-.5-.4-.3-1.2.4-1.2h4.2c.3,0,.5-.2.6-.5l1.3-4c.3-.6,1.1-.6,1.3,0Z"/>
</svg>