<?xml version="1.0" encoding="utf-8"?>
<!-- Generator: Adobe Illustrator 29.2.1, SVG Export Plug-In . SVG Version: 9.03 Build 55982)  -->
<svg version="1.1" baseProfile="tiny" id="Layer_1" xmlns="http://www.w3.org/2000/svg" xmlns:xlink="http://www.w3.org/1999/xlink"
	 x="0px" y="0px" viewBox="0 0 1232.5 447.5" overflow="visible" xml:space="preserve">
<g>
	<path fill="#EAEAEA" d="M283.2,332.1h29.6l-1.7,7.7h-37.1v-43.1h9.2V332.1z"/>
	<path fill="#EAEAEA" d="M386.3,304.4v11.8H412v6.8h-25.7v9.1H420l-1.7,7.7H377v-43.1h40l1.7,7.7H386.3z"/>
	<path fill="#EAEAEA" d="M507.8,316.3h23.6v23.5H527l-1.2-4.2h-0.9c-1.7,2.9-3.5,4.7-9.6,4.7h-14.4c-12.9,0-16.2-6.5-16.2-15.3
		v-13.7c0-8.7,3.3-15.3,16.2-15.3h15.8c12.8,0,14.5,6.9,14.5,15.6l-8.6,1.5v-4.8c0-2.2-1.9-4.6-5-4.6H499c-3.1,0-5,2.4-5,4.6v19.7
		c0,2.2,1.8,4.6,5,4.6h19.6c3.1,0,4.6-2.4,4.6-4.6v-5h-15.3V316.3z"/>
	<path fill="#EAEAEA" d="M606.4,304.4v11.8h25.7v6.8h-25.7v9.1h33.8l-1.7,7.7h-41.3v-43.1h40l1.7,7.7H606.4z"/>
	<path fill="#EAEAEA" d="M752.7,296.7v43.1h-13.6l-23.8-33.2h-0.9v33.2h-9.2v-43.1h13.6l23.9,33.8h0.9v-33.8H752.7z"/>
	<path fill="#EAEAEA" d="M852.5,339.8h-34.2v-43.1h34.2c10.7,0,14.1,6.3,14.1,13.5v16.1C866.6,333.5,863.1,339.8,852.5,339.8z
		 M827.5,332.1h25.3c2.8,0,4.6-2.2,4.6-4.2v-19.2c0-2-1.8-4.2-4.7-4.2h-25.2V332.1z"/>
	<path fill="#EAEAEA" d="M969,316.7c5.4,1,10,4.6,10,10.1v1c0,6.7-3.2,12.5-13.2,12.5h-21.3c-10,0-13.2-5.9-13.2-12.6v-1.4h9.2v2
		c0,2.2,1.5,4.7,4.6,4.7h20.2c3,0,4.4-2.6,4.4-4.7c0-2.4-1.6-4.4-4.3-4.8l-21.8-3.6c-6.4-1.1-11.1-5-11.1-11.6
		c0-6.7,3.6-12.3,13.6-12.3h18.2c9.9,0,13.1,6,13.1,12.7v1.4h-9.2V308c0-2.2-1.4-4.6-4.7-4.6h-16.9c-3.1,0-4.9,2-4.9,4.4
		c0,3.3,2.2,4.4,4.7,4.8L969,316.7z"/>
</g>
<g>
	<path fill="#FFB30B" d="M136.7,138.5L0,278.4h119.4l31.6-32.3h1.7L170,309h55.7l-41.1-170.5H136.7z M96.9,239l41.8-43.1
		c0.5-0.1,0.9-0.2,1-0.2c0.3,0,0.6,0,0.8,0.2c0.7,0.3,1,0.9,1,1.9l9.5,41.1h0l0,0H96.9z M409.7,183.5c-2.4,6.5-5.7,12.4-9.9,17.7
		c-4.2,5.4-9,10-14.5,14c-5.4,4-11.4,7.3-17.8,9.8c-6.5,2.5-13.1,4.2-19.8,5.1v0.8l32.7,47.5h-73.6L269,224.6l12.7-35h71.7
		c1.5,0,2.8-0.7,3.9-2.2c1.1-1.5,1.8-2.8,2.2-3.9c0.6-1.4,0.4-2.7-0.3-3.8c-0.8-1.1-1.9-1.7-3.3-1.7h-81.6L257.2,225h-49.4
		l31.4-86.5h150.6l0,0c5.5,0,9.9,1.5,13.3,4.4c3.4,3,5.8,6.7,7.4,11.1c1.5,4.4,2.2,9.3,2,14.6C412.4,173.9,411.4,178.8,409.7,183.5z
		 M583.3,239.8l-14.1,38.6H431c-5.8,0-10.4-1.4-14-4.2c-3.6-2.8-6.2-6.3-8-10.7c-1.8-4.3-2.6-9.1-2.5-14.4c0.1-5.3,1-10.4,2.8-15.5
		l18.4-50.2c1.8-5.1,4.6-10.3,8.3-15.6c3.7-5.4,8-10.2,13-14.5c4.9-4.3,10.2-7.8,15.8-10.7c5.6-2.8,11.3-4.2,17.1-4.2H620
		l-20.9,57.4l0,0h0l0,0v0h-51.7l7-18.8h-68.6c-2,0-3.3,0.5-4,1.6c-0.7,1-1.3,2.1-1.7,3.3l-18.6,51.3c-0.6,2.2-0.9,3.9-1.2,5
		c-0.2,1,0.7,1.6,2.6,1.6H583.3z M623.1,278.4h78.2l31.6-32.3h1.7l8.9,32.3h56.7l-33.8-139.8h-47.9L581.8,278.4L623.1,278.4
		L623.1,278.4z M720.5,195.9c0.5-0.1,0.9-0.2,1-0.2c0.3,0,0.6,0,0.8,0.2c0.7,0.3,1,0.9,1,1.9l9.5,41.1h0l0,0h-54.2L720.5,195.9z
		 M1092,183.7l-1.9,5.5h85.9l-14.1,38.8h0l0,0h-86.1l-4.2,11.8h124.3l-14.1,38.6h-176.2l34.6-94.9c1.8-5.1,4.6-10.3,8.3-15.6
		c3.7-5.4,8-10.2,13-14.5c4.9-4.3,10.2-7.8,15.8-10.7c5.6-2.8,11.3-4.2,17.1-4.2h138.2l-13.9,38.6h-120.2c-2,0-3.2,0.5-3.8,1.6
		C1094,179.8,1093.1,181.4,1092,183.7z M1023.2,183.5l-18.4,50.2c-1.8,5.1-4.6,10.2-8.2,15.5c-3.7,5.3-7.9,10.1-12.8,14.4
		c-4.9,4.3-10.1,7.8-15.8,10.7c-5.7,2.8-11.4,4.2-17.2,4.2h-55.3v0h-83.1l32.5-89.2h0h0h51.9l-18.4,50.6h68.6c2,0,3.2-0.4,3.8-1.4
		c0.5-0.9,1-1.9,1.5-3.1l18.8-51.7c0.5-2.2,1-3.9,1.3-5c0.3-1-0.6-1.6-2.5-1.6H849.3l13.9-38.6h138.4c5.8,0,10.5,1.4,14.1,4.2
		c3.7,2.8,6.3,6.3,8,10.7c1.7,4.3,2.5,9.1,2.3,14.5C1026,173.2,1025,178.4,1023.2,183.5z"/>
</g>
</svg>
