<?xml version="1.0" encoding="UTF-8"?><svg id="Layer_2" xmlns="http://www.w3.org/2000/svg" viewBox="0 0 1284.96 447.5"><path id="path2998" d="M375.85,161.62v129.55h22.69v-115.64h13.93c10.04,0,14.58.27,16.28.99,3.37,1.41,6.84,5.69,8.26,10.18.75,2.36,1.36,7.46,1.58,13.13.45,11.6-.9,18.81-4.44,23.49-3.69,4.88-5.96,5.65-16.4,5.65h-8.97v14.06l14.09-.27,14.09-.27,4.98-2.36c9.11-4.3,15.72-13.08,18.39-24.41,1.49-6.32,1.47-20.46-.05-27.24-1.45-6.52-4.48-13.09-7.89-17.06-1.43-1.66-4.18-4.05-6.11-5.28-6.6-4.24-9.15-4.51-41.33-4.51h-29.11ZM476.12,161.62v129.55h22.69v-129.55h-22.69ZM760.64,161.62c-10.16,0-20.62.36-23.23.78-5.91.94-12.79,4.06-16.7,7.59-3.94,3.55-7.28,8.89-9.1,14.5-1.13,3.49-1.49,6.66-1.53,13.36-.07,9.24.71,13.17,3.89,19.39,2.06,4.05,7.57,9.89,11.34,12.07,4.39,2.54,10,3.89,19.65,4.66,7.34.6,9.05.96,11.44,2.54,1.88,1.24,3.52,3.27,4.92,6.1,1.96,3.99,2.07,4.82,2.06,13.4,0,8.56-.13,9.4-2.02,12.99-1.27,2.44-3.12,4.57-5.05,5.86l-3.05,2.02-19.28.23-19.26.21v13.84h21.91c13.33,0,23.44-.33,25.8-.83,8.97-1.89,16.43-7.7,20.06-15.62,3.05-6.67,4.13-13.53,3.73-23.81-.42-10.84-2.03-16.75-6.36-23.23-5.38-8.05-11.4-10.81-26.69-12.21-5.66-.52-11.45-1.43-12.88-2.04-3.15-1.33-6.09-4.69-7.39-8.42-1.27-3.68-1.26-14.32.05-18.82,1.28-4.44,5.19-8.53,9.31-9.77,1.99-.6,8.67-.89,19.92-.89h16.95v-13.91h-18.48s0-.01,0-.01ZM1021.37,161.62v19.03h22.69v-19.03h-22.69ZM803.2,176.25l.23,46.66c.2,45.92.24,46.73,1.81,50.89.88,2.33,2.77,5.81,4.18,7.75,2.91,3.96,6.69,6.74,11.48,8.42,2.3.81,6.22,1.12,13.65,1.15l10.43.05v-13.9h-6.82c-6.49,0-6.91-.09-8.76-2.02-1.14-1.19-2.26-3.52-2.72-5.67-.5-2.33-.7-14.42-.58-33.3l.21-29.64,12.26-.21,12.26-.21v-13.86h-24.88v-16.1h-22.76ZM959.89,176.25v46.08c0,44.57.05,46.24,1.51,50.68,1.74,5.29,5.26,10.52,9.1,13.45,1.46,1.12,4.37,2.63,6.45,3.34,2.9,1,6.15,1.31,13.86,1.33l10.06.02v-13.9h-6.5c-5.43,0-6.8-.23-8.39-1.49-1.05-.82-2.24-2.71-2.66-4.2-.46-1.67-.76-14.82-.76-34.01v-31.29h24.93l-.21-6.77-.21-6.77-12.26-.2-12.25-.21v-16.05h-22.69ZM939.88,192.17l-24.22.39c-26.04.4-28.74.72-36.39,4.6-8.55,4.33-14.51,12.75-17.22,24.29-1.13,4.81-1.33,8.96-1.33,27.26,0,20.78.06,21.75,1.67,25.73,3.24,8.02,8.07,12.97,15.03,15.37,3.06,1.06,6.26,1.31,16.79,1.32l12.99.03v-13.91h-9.1c-8.62,0-9.2-.11-11.25-1.83-1.36-1.14-2.46-3.04-2.97-5.08-1.02-4.04-1.07-35.88-.07-43.59,1.42-10.95,3.89-16.09,9.04-18.85,1.77-.95,4.83-1.28,13.46-1.51l11.16-.3v85.06h23.41v-27.33c0-15.03-.23-37.3-.51-49.49l-.49-22.16ZM596.15,192.19l-24.33.36c-26.45.41-30.24.89-37.46,4.76-8.39,4.49-14.38,13.36-16.9,25.04-1.61,7.42-2.36,37.8-1.12,45.15,1.08,6.41,4.08,12.86,7.66,16.51,2.64,2.68,7.02,5.33,10.68,6.45,1.01.31,7.84.58,15.19.61l13.36.07v-13.9h-9.35c-10.55,0-11.94-.5-13.93-5.03-.89-2.02-1.24-5.99-1.46-16.7-.33-15.21.73-31.71,2.38-37.19,1.48-4.92,4.23-8.7,7.48-10.29,2.37-1.16,4.55-1.38,13.79-1.4l10.98-.02.18,42.27.18,42.26h22.69v-98.96h0ZM620.57,192.35c-6.59,0-11.98.08-11.96.18,0,.1,7.53,22.19,16.72,49.11l16.7,48.94-9.4,24.25c-5.17,13.34-9.4,24.35-9.4,24.47s4.49.11,9.97,0l9.97-.21,29.16-73.19c16.05-40.25,29.19-73.27,29.19-73.37,0-.1-4.73-.18-10.55-.18-7.66,0-10.73.25-11.14.92-.31.5-5.91,14.73-12.44,31.63-6.52,16.89-12.15,30.82-12.53,30.94-.38.13-5.57-14.11-11.5-31.63l-10.8-31.86s-12,0-12,0ZM1021.37,192.35v98.8h22.69v-98.8h-22.69ZM1158.59,192.72l-.21,49.22h.03l-.21,49.22h23.44v-85.06l11.16.3c11.85.31,13.83.8,17.15,4.37,2.6,2.79,4.47,7.88,5.3,14.5.43,3.46.78,19.37.78,36.05v29.85h22.68l-.02-29.09c0-30.86-.54-38.18-3.52-46.54-4.05-11.38-11.49-18.12-23.6-21.41-4.01-1.09-8.29-1.28-28.84-1.33l-24.14-.07h0ZM1101.23,192.93c-6.4,0-12.77.8-17.36,2.38-6.1,2.1-9.93,4.55-13.77,8.83-4.17,4.64-7.19,10.92-8.96,18.59-1.08,4.71-1.34,8.66-1.27,20.12.05,12.06.3,15.15,1.6,19.92,2.2,8.1,5.09,13.55,9.47,17.98,4.31,4.36,10.69,7.7,17.87,9.33,3.23.73,7.7.96,14.55.78,11.79-.32,17.4-1.83,24.29-6.54,5.77-3.94,10.13-10.17,12.6-18,3.53-11.18,4.16-29.62,1.44-43.22-1.32-6.61-4.53-13.78-8.1-18.14-3.36-4.1-8.86-7.7-14.75-9.65-4.77-1.58-11.21-2.38-17.61-2.38h0ZM1101.51,206.56c3.32,0,6.65.64,9.26,1.97,3.41,1.73,5.55,4.74,7.41,10.43,1.22,3.72,1.52,7.11,1.81,19.42.37,16.08-.36,23.66-2.86,29.37-1.76,4.04-4.6,7.18-7.73,8.51-1.34.57-4.85,1-8.12,1-4.63,0-6.4-.33-8.99-1.69-2.03-1.08-3.99-2.92-5.26-4.96-3.31-5.34-4.4-12.34-4.44-28.11-.04-15.01.74-21.04,3.51-27.15.94-2.07,2.83-4.6,4.23-5.67,2.67-2.03,6.91-3.11,11.18-3.11h0Z" style="fill:#777;"/><path id="path3775" d="M1261.9,285.43h1.73v-6.39h3.95c1.08,0,1.79.18,2.11.52.31.33.52,1.11.6,2.32l.15,1.88c.03.36.06.66.12.9.05.25.14.51.26.75h1.82v-.47c-.14-.13-.24-.28-.3-.46-.08-.22-.14-.48-.16-.79l-.16-2.19c-.11-1.06-.24-1.79-.42-2.19-.26-.59-.73-.95-1.38-1.07.7-.16,1.25-.55,1.67-1.18.43-.64.64-1.43.64-2.34,0-.75-.15-1.41-.47-1.96-.33-.61-.8-1.09-1.39-1.43-.49-.27-1.07-.44-1.75-.53-.45-.05-1.14-.08-2.06-.08h-4.97v14.7h0s0,0,0,0ZM1263.64,277.47v-5.15h3.51c.69,0,1.18.02,1.49.05.46.07.83.21,1.1.4.33.22.58.49.74.83.18.36.27.75.27,1.18,0,.98-.27,1.66-.83,2.08-.55.42-1.46.61-2.72.61h-3.56Z" style="fill:#777;"/><path d="M1252.97,278.08c0-7.85,6.32-14.22,14.15-14.31h0c.05,0,.11,0,.16,0h0c7.9,0,14.31,6.41,14.31,14.31h0c0,7.9-6.4,14.31-14.31,14.31h0c-7.9,0-14.31-6.4-14.31-14.31h0ZM1257.47,278.08c0,5.42,4.39,9.8,9.81,9.81h0c5.41-.01,9.79-4.4,9.8-9.81h0c-.01-5.32-4.24-9.64-9.52-9.8h-.29c-5.41,0-9.8,4.39-9.8,9.8h0ZM1266.37,268.08c.28.12.49.16.66.18h0c-.2-.02-.39-.07-.57-.14h0c-.14-.05-.26-.12-.38-.2h0s-.06-.04-.09-.05h0c.14.09.27.16.38.21h0ZM1265.31,267.11s0-.01,0-.02h0s0,.01,0,.02h0ZM1265.29,267.06s0-.02-.01-.02h0s0,.01.01.02h0ZM1265.03,266.01c0-.25.05-.51.13-.75h0c-.07.18-.14.42-.13.75h0Z" style="fill:#777;"/><g id="g3"><path id="path7" d="M183.67,149.43l-.22,201.56-54-17.56V96.51l68.93,18.23c44.13,11.86,71.13,34.91,70.69,75.31-.44,46.99-22.17,65.87-64.54,53.57v-92.66c0-11.2-20.86-11.86-20.86-1.54h0Z" style="fill:#de0029;"/><path id="path9" d="M104.63,294.34l-25.47,8.57c-16.47,5.71-30.52-7.68-15.37-13.18l12.29-4.38-46.32-14.72c-14.27,4.84-27.67,15.15-26.78,29.65.88,14.71,34.47,18.23,60.37,22.39,24.15,3.95,46.1,1.75,66.08-5.27v-15.15l-24.81-7.9h0ZM183.88,350.99l47.2-16.46-47.64-15.15v30.52l.44,1.09h0Z" style="fill:#f3c202;"/><path id="path11" d="M309.46,306.86l.88-.22c20.64-7.25,29.42-17.35,27.22-26.79-3.51-15.81-28.76-24.37-67.62-27.23-27.88-1.97-55.32,4.17-82.1,13.39l-4.39,1.54,48.08,14.93,28.1-9.45c29.42-5.48,41.28,4.17,12.96,13.18l-14.05,4.83,50.93,15.81h0ZM129.44,237.04l-21.3,7.24,21.3,6.59v-13.83h0Z" style="fill:#326db3;"/><path id="path13" d="M231.08,334.52l78.38-27.66-50.94-15.81-75.08,25.69v2.63l47.64,15.15h0ZM129.44,286l-24.81,8.34,24.81,7.91v-16.25h0ZM183.44,298.96v-31.4l48.08,14.93-48.08,16.47h0ZM76.09,285.34l53.35-19.1v-15.37l-21.3-6.59-77.28,26.13c-.22,0-.66.22-1.1.22l46.32,14.72h0Z" style="fill:#00aa9e;"/></g></svg>