<?xml version="1.0" encoding="UTF-8"?>
<svg id="Layer_1" xmlns="http://www.w3.org/2000/svg" xmlns:xlink="http://www.w3.org/1999/xlink" version="1.1" viewBox="0 0 952 479.4">
  <!-- Generator: Adobe Illustrator 29.2.1, SVG Export Plug-In . SVG Version: 2.1.0 Build 116)  -->
  <path d="M108.5,155.1c-6.4-2.3-12.8-4.1-19.5-5.3-6.6-1.2-13.1-1.8-19.5-1.8s-8,.4-12.1,1.3c-4,.8-7.5,2.1-10.4,3.9-2.9,1.8-5.3,4.2-7.2,7.3-1.8,3.1-2.8,6.7-2.8,10.9s.6,6.6,1.9,9.3c1.3,2.7,3.3,5.2,6.2,7.7,2.8,2.4,6.5,4.8,11,7.2,4.5,2.3,10,4.9,16.6,7.5,7.7,3,14.7,6.2,21,9.7,6.3,3.4,11.6,7.3,16.1,11.5,4.4,4.3,7.8,9.2,10,14.7,2.3,5.5,3.4,12,3.4,19.3s-1.7,16.3-5.1,22.8c-3.4,6.5-8.2,11.9-14.2,16.1-6,4.2-12.8,7.3-20.5,9.3-7.6,2-15.4,3-23.5,3s-16.8-.8-26.4-2.4c-9.5-1.6-18.7-4.1-27.4-7.7l6-24.4c8.2,3.7,16.4,6.4,24.7,8,8.3,1.7,15.8,2.5,22.5,2.5,10.7,0,19.2-2.1,25.4-6.4,6.2-4.3,9.3-10.6,9.3-19s-.8-7.3-2.5-10.4c-1.7-3.1-4.1-5.9-7.4-8.5-3.3-2.6-7.4-5.1-12.3-7.5-4.9-2.4-10.6-4.9-16.9-7.4-7.5-3-14.2-6.2-20-9.7-5.8-3.4-10.7-7.2-14.7-11.4-4-4.2-7.1-8.9-9.3-14.1-2.2-5.2-3.3-11-3.3-17.3s1.8-15.7,5.3-22.1c3.5-6.4,8.2-11.6,13.9-15.7,5.8-4.1,12.2-7.1,19.3-9,7.1-1.9,14.5-2.9,22.2-2.9s16.4.6,24.2,1.8c7.8,1.2,14.9,2.9,21.5,5.3l-5.8,23.9Z" fill="#f4f4f4"/>
  <path d="M175,248.5c1,12.6,5.6,22.2,13.8,29,8.2,6.8,18.7,10.2,31.6,10.2s11.3-.5,17.2-1.4c5.9-.9,11.4-2.3,16.4-4.1l3.8,21.3c-11.5,4-24.9,6-39.9,6s-21.5-1.7-30.4-5.1c-8.9-3.4-16.3-8.2-22.3-14.3-6-6.1-10.6-13.4-13.7-21.8-3.1-8.4-4.6-17.7-4.6-27.7s1.5-19.3,4.4-27.9c2.9-8.5,7.2-15.9,12.7-22.1,5.5-6.2,12.2-11,20-14.4,7.8-3.4,16.5-5.1,26.2-5.1s17.9,1.5,25,4.6c7.1,3.1,13.1,7.4,18,13.1,4.9,5.6,8.5,12.5,10.9,20.6,2.4,8.1,3.6,17.1,3.6,27v12.3h-92.6ZM210.2,191.5c-10,0-18.1,3.3-24.2,9.9-6.1,6.6-9.8,15.3-10.9,26h66v-.5c.2-10.7-2.6-19.3-8.2-25.7-5.6-6.4-13.2-9.7-22.7-9.7Z" fill="#f4f4f4"/>
  <path d="M280.9,174h22.1v-34.4h28.6v34.4h29.1v21.8h-29.1v69.3c0,4.5.2,8.2.5,10.9.3,2.8,1.1,4.9,2.3,6.4,1.2,1.5,2.8,2.5,4.8,3,2,.5,4.8.8,8.3.8s4.8,0,6.9-.3c2.1-.2,4.1-.4,6.2-.8v21.3c-2.8.3-6.2.7-10,1-3.9.3-7.7.5-11.5.5-7.7,0-13.9-.8-18.6-2.5-4.7-1.7-8.3-4.1-10.9-7.4-2.6-3.3-4.3-7.2-5.1-11.8-.8-4.6-1.3-9.9-1.3-15.9v-74.6h-22.1v-21.8Z" fill="#f4f4f4"/>
  <path d="M371.6,174h22.1v-34.4h28.6v34.4h29.1v21.8h-29.1v69.3c0,4.5.2,8.2.5,10.9.3,2.8,1.1,4.9,2.3,6.4,1.2,1.5,2.8,2.5,4.8,3,2,.5,4.8.8,8.3.8s4.8,0,6.9-.3c2.1-.2,4.1-.4,6.2-.8v21.3c-2.8.3-6.2.7-10,1-3.9.3-7.7.5-11.5.5-7.7,0-13.9-.8-18.6-2.5-4.7-1.7-8.3-4.1-10.9-7.4-2.6-3.3-4.3-7.2-5.1-11.8-.8-4.6-1.3-9.9-1.3-15.9v-74.6h-22.1v-21.8Z" fill="#f4f4f4"/>
  <path d="M506.9,123.3v26.6h-29.4v-26.6h29.4ZM506.4,174v132.6h-28.6v-132.6h28.6Z" fill="#f4f4f4"/>
  <path d="M572.7,174v18.6h.5c3.7-6.9,9.2-12.2,16.6-15.9,7.4-3.8,15.5-5.6,24.4-5.6,14.7,0,26.4,4.4,35.1,13.1,8.7,8.7,13.1,20.4,13.1,35.1v87.4h-28.6v-76.6c0-5.7-.4-10.9-1.3-15.6-.8-4.7-2.3-8.6-4.5-11.8-2.2-3.2-5-5.6-8.5-7.3-3.5-1.7-8-2.5-13.6-2.5s-8,.8-11.8,2.3c-3.9,1.5-7.3,3.9-10.3,7-3,3.2-5.5,7.3-7.4,12.4-1.9,5.1-2.9,11.3-2.9,18.7v73.3h-28.6v-132.6h27.9Z" fill="#f4f4f4"/>
  <path d="M790.8,283.9h-.5c-4.7,6.9-10.5,11.9-17.4,15.1-6.9,3.2-14.4,4.8-22.5,4.8s-17.1-1.7-24.2-5.1c-7.1-3.4-13.1-8.1-18.1-14.1-4.9-5.9-8.7-13-11.3-21.1-2.6-8.1-3.9-16.9-3.9-26.2s1.3-18.1,4-26.2c2.7-8.1,6.5-15.1,11.5-21.1,5-5.9,11.2-10.6,18.5-13.9,7.3-3.3,15.1-5,23.5-5s15.5,1.5,22.3,4.6c6.9,3.1,12.7,7.9,17.6,14.4h.5v-16.1h27.9v122.5c-.2,11-2.1,20.3-5.8,27.7-3.7,7.4-8.6,13.4-14.8,18-6.2,4.5-13.3,7.9-21.2,10-8,2.2-16.5,3.3-25.7,3.3s-14.7-.5-22-1.5-13.9-2.5-19.7-4.5l4.3-21.6c5.9,2,11.5,3.5,17.1,4.4,5.5.9,11.5,1.4,18.1,1.4,14.1,0,24.6-3.2,31.5-9.5,6.9-6.4,10.4-15.6,10.4-27.6v-12.6ZM721.5,237.2c0,6.4.7,12.3,2.1,17.7,1.4,5.4,3.5,10.2,6.3,14.2s6.3,7.2,10.5,9.4c4.3,2.3,9.2,3.4,14.9,3.4s10.8-1.1,15.2-3.4c4.4-2.3,8.2-5.4,11.3-9.4,3.1-4,5.5-8.7,7.2-14.2,1.7-5.4,2.5-11.3,2.5-17.7s-.8-12.6-2.5-17.8c-1.7-5.2-4.1-9.8-7.2-13.8-3.1-4-6.9-7.2-11.3-9.4-4.4-2.3-9.5-3.4-15.2-3.4s-10.3,1.1-14.8,3.4c-4.5,2.3-8.2,5.5-10.9,9.8s-4.8,9-6.2,14.2c-1.3,5.2-2,10.9-2,17.1Z" fill="#f4f4f4"/>
  <path d="M933.7,199.8c-6.7-2.7-12.8-4.5-18.2-5.5-5.4-1-10.8-1.5-16.2-1.5s-5.2.3-7.7.8c-2.4.5-4.7,1.3-6.9,2.5-2.2,1.2-3.9,2.8-5.1,4.8-1.3,2-1.9,4.3-1.9,6.8s.4,4.4,1.3,6.2c.8,1.8,2.3,3.4,4.4,5,2.1,1.6,4.9,3.1,8.3,4.6,3.4,1.5,7.7,3.1,12.7,4.8,6.5,2.3,12.5,4.8,17.8,7.3,5.4,2.5,9.9,5.4,13.6,8.8,3.7,3.4,6.5,7.2,8.4,11.4,1.9,4.3,2.9,9.2,2.9,14.9s-1.5,13.5-4.5,18.5c-3,4.9-7,8.9-11.9,11.9-4.9,3-10.5,5.2-16.7,6.5-6.2,1.3-12.4,2-18.6,2s-15.5-.8-24-2.4c-8.5-1.6-16.2-3.9-23.2-6.9l6.3-22.1c7.2,3.2,14.5,5.6,22,7.2,7.4,1.6,13.8,2.4,19.2,2.4s13-1.1,17.4-3.4c4.4-2.3,6.7-6.3,6.9-12.2,0-5-2.4-9.1-7.2-12.2-4.8-3.1-12.4-6.4-23-9.9-13.2-4.5-23.1-10-29.5-16.3-6.4-6.4-9.7-14.1-9.7-23.3s1.4-12.4,4.3-17.6c2.8-5.2,6.7-9.4,11.5-12.6,4.9-3.2,10.2-5.5,15.9-7s11.5-2.3,17.2-2.3,14.1.6,21.2,1.9c7.1,1.3,13.6,3.1,19.5,5.6l-6.5,21.3Z" fill="#f4f4f4"/>
</svg>