<?xml version="1.0" encoding="utf-8"?>
<!-- Generator: Adobe Illustrator 29.1.0, SVG Export Plug-In . SVG Version: 9.03 Build 55587)  -->
<svg version="1.1" baseProfile="tiny" id="Ebene_1" xmlns="http://www.w3.org/2000/svg" xmlns:xlink="http://www.w3.org/1999/xlink"
	 x="0px" y="0px" viewBox="0 0 596.5 155" overflow="visible" xml:space="preserve">
<g>
	<g>
		<path fill="#0584DB" d="M526,131.6c-0.8-0.9-3-0.9-3.3-0.9c-15.4,0-30.7,0-46.1,0c-1.6,0-1.8,0.2-1.7-1.8c0.3-3.2,1.5-6.2,3.9-8.6
			c0.5-0.5,0.6-0.6,1.6-1.5c4.4-4,13-7.1,13-7.1s7.3-2.7,11.3-4.3c1.8-0.7,3.6-1.6,5.3-2.7c5.9-4.7,2.8-9.3-5-10.4
			c-5.5-0.8-10.4,0.6-15.1,3.5c-0.6,0.4-1.1,0.8-1.7,1.2c-1,0.9-1.9,1.9-2.1,3c-0.1,0.6,0,1,0,1.1c0,0.3,0.1,0.8-0.1,1
			c-0.3,0.3-0.9,0-1.1-0.2c-2.4-2.2-4.7-4.5-7.1-6.7c-0.1-0.1-0.4-0.4-0.4-0.4s-0.3-0.3-0.3-0.5c0-0.2,0.2-0.5,0.5-0.5
			c1.3-0.2,1.9-0.3,2.7-0.9c2.1-1.5,4.3-2.9,6.6-4c3.1-1.5,6.4-2.4,9.8-2.9c2.6-0.4,10.4-1.6,19.5,2.5c2.4,1,4.4,2.5,6,4.6
			c0.9,1.2,4.4,8-2.7,13.5c-2.5,2-5.5,3.3-8.5,4.3c-2.6,0.9-4.5,1.6-8.7,2.8c-3.2,1-5.5,1.7-9.2,3.5c-2.9,1.4-4.9,3.1-4.9,3.1
			s-1,0.7-0.8,1.3c0.2,0.5,1,0.5,1.4,0.5c11.3,0,22.7,0,34,0c1.2,0,2.3-0.1,3.2-1c0.1-0.1,0.5-0.2,0.6-0.1c0.1,0.1,0.3,0.4,0.3,0.6
			c0,2.7,0,5.4,0,8c0,0.3-0.1,0.4-0.2,0.4C526.6,131.9,526.2,131.8,526,131.6z"/>
		<path fill="#0584DB" d="M441.5,131.2c-1.9-0.1-3.7-0.4-5.6-0.7c-7.5-1.3-11-3.1-13-3.9c-1-0.4-2-0.8-3.1-0.4c-0.1,0-0.3,0-0.4,0
			c-0.7,0-0.9-0.3-0.6-0.9c0.4-0.7,0.8-1.4,1.2-2.1c1.1-1.9,2.3-3.8,3.5-5.7c0.1-0.1,0.1-0.2,0.2-0.3c0.2-0.4,0.5-0.8,1-0.7
			c0.5,0.1,0.6,0.5,0.7,0.9c0.2,0.9,0.8,1.5,1.4,2c1.6,1.3,3.5,2.1,5.4,2.8c2.5,0.9,5.1,1.4,7.7,1.8c3.1,0.5,6.2,0.6,9.4,0.4
			c2.6-0.2,5.3-0.6,7.8-1.6c1.5-0.6,2.7-1.6,3.6-2.9c1.2-1.7,0.7-4-0.9-5.4c-2.3-1.8-4.9-2.5-7.7-3c-2.5-0.4-5-0.4-7.5-0.4
			c-1.2,0-4,0.1-5.1,1.1c-0.4,0.4-0.7,0.4-0.9,0.2c-0.2-0.2-0.2-0.4-0.2-0.7c0-2.5,0-4.9,0-7.4c0-0.8,0.4-1,1-0.6
			c0.8,0.6,1.7,0.8,2.6,0.9c1.5,0.2,6.5,0,7.5-0.1c2.7-0.4,2.5-0.3,4-0.7c1.7-0.5,3.3-1.6,4.1-2.6c0,0,0,0,0,0
			c1.2-1.4,0.8-3-0.3-4.2c-1-1.1-2.4-1.8-3.8-2.3c-2.4-0.7-4.9-1.1-7.3-1c-4.5,0.2-8.9,0.9-13,3c-0.9,0.5-1.8,1.1-2.7,1.7
			c-0.7,0.5-1.1,1.3-1.1,2.2c0,0.5,0.1,1-0.5,1.2c-0.6,0.2-0.9-0.3-1.2-0.6c-2.1-2.1-4.1-4.2-6.2-6.3c-0.1-0.1-0.3-0.2-0.3-0.4
			c-0.3-0.4-0.1-0.7,0.4-0.8c0.5-0.1,1.1,0,1.6-0.1c0.7-0.2,1.4-0.6,2.1-1c1.9-0.9,3.7-1.9,5.6-2.7c3-1.2,6.2-1.9,9.5-2.3
			c3.1-0.4,8.6-0.5,12.6,0c2.7,0.4,5.3,0.9,7.8,2c2.2,1,4.3,2.1,5.9,3.9c1.2,1.3,2,2.8,2.2,4.6c0.3,1.7,0,3.3-0.8,4.8
			c-0.5,1.1-1.3,1.7-2.3,2.4c-2,1.2-3.3,1.5-3.5,1.7c-0.4,0.2-0.4,0.6,0,0.8c0.4,0.2,0.8,0.3,1.2,0.5c2.5,0.8,4.6,2.1,6.3,4
			c1.3,1.3,2,3,2.3,4.9c0.3,2-0.2,3.7-1,5.4c-0.7,1.3-1.8,2.3-2.9,3.1c-2.3,1.7-4.9,2.9-7.7,3.7c-2.1,0.6-4.2,1-6.3,1.3
			C446.9,131.7,443.2,131.3,441.5,131.2z"/>
		<path fill="#0584DB" d="M541.3,87.9c2.4,0,4.8,0,7.3,0c0.2,0,0.5,0,0.7,0c0.5,0.1,0.6,0.3,0.3,0.7c-0.6,0.8-0.6,0.9,0.1,1.6
			c0,0,0,0,0.1,0.1c3.4,3.4,6.7,6.8,10.1,10.2c0.2,0.2,0.3,0.4,0.5,0.5c0.3,0.2,0.7,0.2,1,0c0.2-0.1,0.3-0.3,0.5-0.5
			c3.3-3.4,6.7-6.7,10-10.1c0.1-0.1,0.2-0.2,0.4-0.4c0.4-0.6,0.4-0.7,0-1.3c-0.4-0.5-0.4-0.8,0.4-0.8c0.2,0,0.3,0,0.5,0
			c4.9,0,9.8,0,14.7,0c0.3,0,0.6,0,0.9,0.1c0.1,0,0.3,0.2,0.3,0.4c0,0.1-0.1,0.4-0.2,0.4c-0.3,0.2-0.7,0.3-1,0.4
			c-1.4,0.3-2.5,1-3.5,2c-4.3,4.3-8.6,8.7-12.9,13c-1.1,1.1-2.1,2.2-3.2,3.3c-0.7,0.7-0.7,1,0,1.7c1.2,1.2,2.4,2.4,3.6,3.6
			c0.9,0.9,1.7,1.9,2.6,2.8c2.3,2.4,4.7,4.7,7.1,7.1c1.6,1.6,3.1,3.2,4.7,4.8c0.9,0.9,1.9,1.6,3.2,1.9c0.5,0.1,0.9,0.3,1.3,0.5
			c0.1,0.1,0.2,0.3,0.2,0.4c0,0.1-0.2,0.3-0.3,0.3c-0.2,0.1-0.5,0.1-0.7,0.1c-5,0-10,0-15,0c-0.2,0-0.4,0-0.6-0.1
			c-0.3-0.1-0.4-0.3-0.2-0.6c0.2-0.3,0.4-0.6,0.4-0.9c0-0.3-0.3-0.6-0.6-0.8c-3.9-4-7.8-7.9-11.7-11.9c-0.1-0.1-0.3-0.3-0.4-0.4
			c-0.9-0.8-1.2-0.8-2,0c-2.5,2.5-5,4.9-7.4,7.4c-1.6,1.6-3.2,3.3-4.7,4.9c-0.6,0.6-0.6,0.7-0.1,1.5c0.3,0.5,0.2,0.7-0.4,0.8
			c-0.2,0-0.5,0-0.7,0c-4.8,0-9.7,0-14.5,0c-0.4,0-1.2,0.1-1.2-0.4c-0.1-0.6,0.6-0.6,1-0.7c1.8-0.4,3.1-1.4,4.3-2.7
			c4-4.1,8-8.1,12-12.1c1.2-1.3,2.4-2.6,3.7-3.8c0.5-0.5,1-0.9,1.5-1.4c1-1,1-1.3,0-2.2c-2.9-3-5.9-5.9-8.8-8.9
			c-2.4-2.4-4.8-4.8-7.2-7.3c-0.9-0.9-2-1.5-3.2-1.8c-0.2-0.1-0.5-0.1-0.7-0.2c-0.3-0.1-0.7-0.2-0.7-0.6c0-0.4,0.4-0.4,0.8-0.4
			c0.2,0,0.4,0,0.6,0C536.5,87.9,538.9,87.9,541.3,87.9z"/>
	</g>
	<g>
		<path id="path2898_1_" fill="#0584DB" d="M5.5,137.3l52.3,0c21.4,0,38.7-17.3,38.7-38.7c0-21.4-17.3-38.7-38.7-38.7l-13.6,0.1
			c-1.1,0-2-0.9-2-2c0-1.1,0.9-2,2-2l52.2,0l0-16.4H44.2c-10.1,0-18.3,8.2-18.3,18.3c0,10.1,8.2,18.3,18.3,18.3l13.6,0.2
			c12.2,0,22.2,9.9,22.2,22.2c0,12.2-9.9,22.2-22.2,22.2H5.5L5.5,137.3"/>
		<path id="path2900_1_" fill="#0584DB" d="M5.5,116.8h52.3c10.1,0,18.3-8.2,18.3-18.3c0-10.1-8.2-18.3-18.3-18.3L44.2,80
			C31.9,80,22,70.1,22,57.9c0-12.2,9.9-22.2,22.2-22.2l52.2,0l0-16.5l-52.2,0c-21.4,0-38.7,17.3-38.7,38.7
			c0,21.4,17.3,38.7,38.7,38.7l13.5,0c1,0,1.9,0.8,1.9,1.9c0,1-0.8,1.9-1.9,1.9l-52.2,0L5.5,116.8"/>
		<path id="path2902_1_" fill="#0584DB" d="M137,120.8c-9.1,0-16.5-7.3-16.5-16.5V51.9c0-8.9,7.4-16.2,16.5-16.2l55.8,0l0-16.5
			l-55.8,0c-18.1,0-32.9,14.7-32.9,32.9v52.2c0,18.1,14.7,32.9,32.9,32.9l55.6,0l0-16.4L137,120.8"/>
		<path id="path2904_1_" fill="#0584DB" d="M124.5,52.1c0-6.9,5.6-12.5,12.5-12.5h55.8l0,16.4h-48.1c-3.9,0-3.9,3.9-3.9,3.9h40.1
			l0,16.4h-56.4L124.5,52.1"/>
		<path id="path2906_1_" fill="#0584DB" d="M137,116.8c-6.9,0-12.5-5.6-12.5-12.5l0-24.2h56.4l0,16.4h-40.1c0,3.9,3.9,3.9,3.9,3.9
			h47.9l0,16.3L137,116.8"/>
		<path id="path2908_1_" fill="#0584DB" d="M231.9,120.7c-9.1,0-16.4-7.4-16.4-16.4V52.1c0-9.1,7.3-16.4,16.4-16.4l54,0l0-16.4
			l-54.2,0c-18.1,0-32.9,14.7-32.9,32.9v52.2c0,18.1,14.8,32.9,33,32.9l54,0l0-77.4h-46.4v16.4h30v44.5L231.9,120.7"/>
		<path id="path2910_1_" fill="#0584DB" d="M219.3,104.3c0,6.9,5.6,12.6,12.5,12.6l33.7,0V80.1h-26.1v16.4h9.7l0,3.9l-9.6,0
			c-2.1,0-3.9-1.7-3.9-3.9l-0.1-36.7c0,0,0-3.8,3.9-3.9h46.4l0-16.4l-54,0c-6.9,0-12.5,5.6-12.5,12.5L219.3,104.3"/>
		<path id="path2912_1_" fill="#0584DB" d="M336.7,39.2c0.7-2.1,2.7-3.6,5.1-3.6c2.3,0,4.3,1.5,5.1,3.6L373,117h-38.4l0-18.3h12.8
			l-5.8-17.2l-18.8,55.7h-19.4L336.7,39.2"/>
		<path id="path2914_1_" fill="#0584DB" d="M378.3,120.7h-43.6v16.4h66.4L366.5,34.6c-3-10-13-17.3-24.8-17.3
			c-11.8,0-21.8,7.3-24.8,17.3L282,137.2h17.4l33.8-99.7c1.4-3.3,4.6-5.6,8.4-5.6c3.8,0,7,2.3,8.4,5.6L378.3,120.7"/>
	</g>
</g>
</svg>
